<svg xmlns="http://www.w3.org/2000/svg" viewBox="-67.54 -64.25 556.88 556.88" width="512" height="512" role="img" aria-label="Todos Protegidos"><rect x="-67.54" y="-64.25" width="556.88" height="556.88" fill="#1e3a8c"/><g transform="translate(-118.56343,-129.10958)"><path
       id="escudo"
       d="m 310.52,129.61 c -5.9,0.25 -11.79,0.61 -17.64,1.08 -5.84,0.46 -11.67,1.02 -17.44,1.71 -5.77,0.68 -11.51,1.46 -17.18,2.38 -5.68,0.92 -11.32,1.95 -16.87,3.15 -5.56,1.21 -11.07,2.53 -16.48,4.08 -5.41,1.54 -10.76,3.23 -15.96,5.18 -5.21,1.94 -10.34,4.08 -15.28,6.5 -4.93,2.43 -9.76,5.09 -14.33,8.05 -4.57,2.96 -8.99,6.2 -13.1,9.72 -4.12,3.52 -8.02,7.34 -11.59,11.39 -3.58,4.06 -6.88,8.41 -9.87,12.95 -3,4.53 -5.68,9.33 -8.08,14.26 -2.41,4.92 -4.49,10.07 -6.35,15.3 -1.85,5.24 -3.4,10.64 -4.76,16.12 -1.36,5.47 -2.47,11.07 -3.4,16.73 -0.94,5.65 -1.65,11.4 -2.22,17.18 -0.56,5.77 -0.95,11.63 -1.17,17.48 -0.23,5.84 -0.29,11.74 -0.19,17.6 0.11,5.85 0.38,11.72 0.83,17.52 0.45,5.8 1.07,11.58 1.9,17.27 0.82,5.69 1.83,11.33 3.03,16.88 1.21,5.55 2.62,11.03 4.22,16.42 1.59,5.4 3.39,10.72 5.37,15.96 1.97,5.24 4.14,10.4 6.48,15.49 2.34,5.08 4.86,10.09 7.54,15.02 2.68,4.94 5.54,9.8 8.54,14.56 3,4.77 6.16,9.47 9.46,14.06 3.29,4.6 6.73,9.11 10.29,13.5 3.56,4.4 7.26,8.71 11.07,12.9 3.81,4.19 7.75,8.28 11.79,12.25 4.04,3.97 8.2,7.83 12.46,11.57 4.27,3.74 8.64,7.38 13.11,10.87 4.46,3.49 9.03,6.87 13.68,10.07 4.66,3.19 9.41,6.27 14.25,9.12 4.83,2.85 9.76,5.55 14.78,7.98 5.03,2.44 10.14,4.68 15.34,6.61 5.2,1.93 10.51,3.63 15.87,4.96 5.35,1.34 10.82,2.39 16.29,3.06 5.47,0.66 11.02,0.99 16.52,0.94 5.5,-0.06 11.04,-0.49 16.49,-1.26 5.45,-0.77 10.89,-1.93 16.21,-3.37 5.33,-1.43 10.6,-3.24 15.76,-5.26 5.16,-2.02 10.24,-4.36 15.22,-6.88 4.98,-2.51 9.86,-5.29 14.65,-8.22 4.79,-2.92 9.49,-6.07 14.09,-9.34 4.59,-3.26 9.1,-6.71 13.49,-10.27 4.39,-3.55 8.68,-7.25 12.86,-11.06 4.18,-3.8 8.26,-7.74 12.22,-11.76 3.96,-4.03 7.81,-8.18 11.55,-12.41 3.73,-4.24 7.36,-8.58 10.85,-13.01 3.49,-4.43 6.87,-8.97 10.1,-13.58 3.23,-4.62 6.33,-9.33 9.27,-14.11 2.93,-4.79 5.73,-9.67 8.34,-14.62 2.61,-4.95 5.07,-9.98 7.33,-15.1 2.27,-5.11 4.36,-10.3 6.25,-15.58 1.89,-5.27 3.59,-10.63 5.09,-16.07 1.5,-5.43 2.8,-10.96 3.91,-16.55 1.11,-5.59 2.02,-11.27 2.76,-17 0.75,-5.73 1.29,-11.54 1.7,-17.37 0.41,-5.83 0.65,-11.73 0.75,-17.61 0.1,-5.88 0.06,-11.8 -0.14,-17.67 -0.2,-5.87 -0.52,-11.75 -1.05,-17.55 -0.52,-5.79 -1.19,-11.57 -2.1,-17.23 -0.91,-5.66 -1.99,-11.27 -3.36,-16.74 -1.37,-5.47 -2.96,-10.87 -4.87,-16.08 -1.91,-5.22 -4.08,-10.33 -6.57,-15.22 -2.5,-4.89 -5.29,-9.64 -8.39,-14.12 -3.1,-4.49 -6.53,-8.78 -10.21,-12.78 -3.69,-3.99 -7.7,-7.74 -11.91,-11.18 -4.21,-3.45 -8.72,-6.6 -13.37,-9.48 -4.66,-2.87 -9.55,-5.44 -14.55,-7.78 -5,-2.33 -10.19,-4.37 -15.45,-6.22 -5.25,-1.85 -10.65,-3.44 -16.1,-4.89 -5.45,-1.44 -11.01,-2.67 -16.61,-3.77 -5.6,-1.11 -11.27,-2.03 -16.99,-2.85 -5.72,-0.83 -11.5,-1.5 -17.31,-2.08 -5.81,-0.58 -11.67,-1.03 -17.55,-1.39 -5.88,-0.35 -11.8,-0.6 -17.72,-0.75 -5.91,-0.15 -11.86,-0.19 -17.79,-0.14 -5.92,0.06 -11.86,0.22 -17.76,0.48 z m -0.09,18.72 c -5.41,0.23 -10.82,0.55 -16.18,0.96 -5.36,0.42 -10.7,0.92 -16,1.53 -5.29,0.6 -10.56,1.29 -15.77,2.1 -5.21,0.81 -10.4,1.71 -15.51,2.77 -5.11,1.05 -10.18,2.21 -15.16,3.57 -4.98,1.35 -9.91,2.84 -14.71,4.56 -4.8,1.73 -9.54,3.62 -14.09,5.78 -4.55,2.17 -9.01,4.54 -13.23,7.21 -4.22,2.66 -8.29,5.58 -12.07,8.78 -3.78,3.2 -7.35,6.68 -10.61,10.39 -3.25,3.72 -6.23,7.72 -8.91,11.9 -2.67,4.18 -5.04,8.61 -7.14,13.17 -2.09,4.55 -3.88,9.32 -5.44,14.17 -1.56,4.86 -2.84,9.87 -3.94,14.94 -1.1,5.07 -1.96,10.26 -2.68,15.48 -0.73,5.23 -1.25,10.54 -1.65,15.86 -0.4,5.33 -0.65,10.71 -0.76,16.08 -0.11,5.37 -0.09,10.77 0.09,16.13 0.17,5.36 0.48,10.72 0.96,16.02 0.48,5.29 1.1,10.56 1.92,15.75 0.82,5.2 1.8,10.33 2.97,15.39 1.18,5.06 2.53,10.04 4.06,14.96 1.53,4.91 3.25,9.74 5.12,14.51 1.87,4.77 3.92,9.46 6.11,14.09 2.19,4.63 4.55,9.19 7.04,13.68 2.49,4.49 5.14,8.91 7.91,13.25 2.78,4.34 5.7,8.62 8.73,12.8 3.04,4.17 6.21,8.27 9.48,12.27 3.28,4 6.68,7.91 10.17,11.72 3.5,3.81 7.1,7.52 10.8,11.14 3.7,3.61 7.5,7.14 11.39,10.56 3.89,3.42 7.89,6.75 11.96,9.96 4.07,3.2 8.24,6.32 12.49,9.27 4.25,2.96 8.58,5.8 13,8.45 4.41,2.64 8.91,5.15 13.5,7.4 4.59,2.26 9.26,4.34 14.02,6.12 4.75,1.78 9.6,3.34 14.51,4.55 4.9,1.21 9.91,2.14 14.92,2.71 5,0.56 10.09,0.79 15.13,0.67 5.03,-0.12 10.1,-0.61 15.08,-1.41 4.97,-0.81 9.93,-1.98 14.78,-3.4 4.85,-1.43 9.64,-3.2 14.32,-5.17 4.69,-1.96 9.3,-4.22 13.81,-6.63 4.52,-2.42 8.95,-5.06 13.29,-7.83 4.34,-2.77 8.6,-5.73 12.76,-8.79 4.16,-3.06 8.23,-6.26 12.2,-9.57 3.97,-3.3 7.85,-6.73 11.62,-10.25 3.78,-3.52 7.46,-7.15 11.05,-10.87 3.58,-3.72 7.07,-7.55 10.46,-11.46 3.38,-3.91 6.68,-7.92 9.85,-12.01 3.18,-4.1 6.25,-8.28 9.19,-12.54 2.93,-4.26 5.76,-8.61 8.42,-13.02 2.67,-4.41 5.21,-8.9 7.58,-13.46 2.37,-4.56 4.6,-9.18 6.66,-13.88 2.05,-4.7 3.95,-9.47 5.66,-14.31 1.72,-4.84 3.26,-9.75 4.62,-14.74 1.37,-4.98 2.55,-10.04 3.57,-15.17 1.01,-5.12 1.84,-10.33 2.51,-15.58 0.68,-5.25 1.18,-10.57 1.55,-15.91 0.36,-5.34 0.57,-10.75 0.66,-16.14 0.08,-5.39 0.03,-10.82 -0.15,-16.2 -0.19,-5.38 -0.49,-10.77 -0.96,-16.09 -0.47,-5.32 -1.06,-10.62 -1.87,-15.82 -0.81,-5.19 -1.76,-10.35 -2.98,-15.36 -1.23,-5.01 -2.64,-9.96 -4.36,-14.72 -1.71,-4.76 -3.67,-9.42 -5.95,-13.85 -2.28,-4.43 -4.85,-8.72 -7.72,-12.73 -2.87,-4.01 -6.06,-7.82 -9.5,-11.34 -3.44,-3.52 -7.2,-6.79 -11.14,-9.78 -3.94,-2.99 -8.16,-5.7 -12.51,-8.17 -4.35,-2.46 -8.91,-4.64 -13.57,-6.62 -4.65,-1.99 -9.46,-3.71 -14.34,-5.27 -4.88,-1.56 -9.87,-2.9 -14.92,-4.11 -5.04,-1.2 -10.17,-2.22 -15.34,-3.13 -5.17,-0.91 -10.42,-1.66 -15.69,-2.33 -5.28,-0.66 -10.61,-1.19 -15.96,-1.65 -5.36,-0.45 -10.76,-0.81 -16.17,-1.08 -5.41,-0.28 -10.86,-0.47 -16.3,-0.59 -5.44,-0.11 -10.9,-0.15 -16.34,-0.09 -5.44,0.05 -10.89,0.19 -16.3,0.42 z"
       fill="#02beb0"
       fill-rule="evenodd"
       style="display:inline" /></g><g
     id="layer3"
     transform="translate(-118.76409,-129.10958)"><g
       id="g5"
       transform="translate(0,-1.784682)"><path
         d="m 316.89666,256.63097 c 18.65966,6.69497 41.36603,17.97064 50.74609,35.14062 10.49002,19.20175 7.3125,100.0625 7.3125,100.0625 0.43409,3.50166 0.82521,6.92026 1.17773,10.25781 0.0946,-2.19697 0.17572,-4.3919 0.31641,-6.57812 0.15264,-2.35998 0.30615,-4.72018 0.56445,-7.0332 0.25831,-2.32475 0.56365,-4.62657 0.98633,-6.86915 0.42269,-2.2543 0.91482,-4.47438 1.53711,-6.63476 0.61054,-2.17212 1.32651,-4.2851 2.17188,-6.35156 0.83363,-2.06644 1.77336,-4.08611 2.83007,-6.03516 1.05671,-1.94904 2.23197,-3.85003 3.48828,-5.66992 1.26806,-1.81989 2.64176,-3.59251 4.09766,-5.27149 1.45591,-1.679 3.00469,-3.28811 4.63672,-4.80273 1.63203,-1.51461 3.34619,-2.94667 5.13086,-4.28516 1.77293,-1.32676 3.62917,-2.57202 5.53125,-3.72265 1.90207,-1.15065 3.87311,-2.19539 5.88086,-3.16992 1.996,-0.98626 4.05075,-1.85581 6.11719,-2.70118 2.07821,-0.83363 4.19126,-1.58451 6.30468,-2.32422 2.11342,-0.73969 4.26352,-1.4205 6.38868,-2.13671 2.1369,-0.70448 4.28501,-1.38531 6.39843,-2.125 2.11341,-0.7397 4.23822,-1.47891 6.31641,-2.30079 2.07819,-0.82188 4.14459,-1.69154 6.15234,-2.64257 2.01949,-0.9393 4.01584,-1.96081 5.95313,-3.05274 1.92557,-1.10368 3.82852,-2.27687 5.66015,-3.54492 1.83163,-1.25631 3.61587,-2.60663 5.33008,-4.03906 1.71421,-1.42068 3.37004,-2.93642 4.94336,-4.52149 1.57333,-1.57332 3.07541,-3.24083 4.4961,-4.96679 1.42069,-1.71421 2.77103,-3.51014 4.02734,-5.35352 1.25631,-1.84337 2.42957,-3.74626 3.50976,-5.69531 1.09194,-1.93729 2.07835,-3.94338 2.98243,-5.97461 0.89233,-2.03123 1.69203,-4.10926 2.38476,-6.21094 0.68099,-2.10168 1.27843,-4.25174 1.73633,-6.41211 0.45791,-2.16038 0.82186,-4.35521 1.0332,-6.52734 0.21134,-2.18387 0.30678,-4.40406 0.23633,-6.56445 -0.0704,-2.17212 -0.27076,-4.35536 -0.64648,-6.45704 -0.38747,-2.11342 -0.91663,-4.20326 -1.6211,-6.17578 -0.71621,-1.98426 -1.58394,-3.92238 -2.6289,-5.69531 -1.04497,-1.78466 -2.2669,-3.48538 -3.64063,-5 -1.37372,-1.51461 -2.91088,-2.90008 -4.57812,-4.08594 -1.65552,-1.18587 -3.48663,-2.20743 -5.37696,-3.01758 -1.90208,-0.82189 -3.93355,-1.44446 -6,-1.89062 -2.06646,-0.45791 -4.22829,-0.69314 -6.38867,-0.81055 -2.16038,-0.10567 -4.37858,-0.0238 -6.58594,0.14063 -2.20734,0.17612 -4.42742,0.50516 -6.63476,0.86914 -2.20736,0.37572 -4.40205,0.86818 -6.59766,1.37305 -2.19561,0.50488 -4.37865,1.08093 -6.55078,1.65625 -2.18387,0.58707 -4.34546,1.20975 -6.51758,1.83203 -2.16039,0.62229 -4.32009,1.26831 -6.48047,1.90234 -2.16038,0.64577 -4.30837,1.30148 -6.46875,1.95898 -2.14864,0.65751 -4.31033,1.32687 -6.45898,1.98438 -2.14864,0.6575 -4.29665,1.32686 -6.45703,1.98437 -2.14864,0.6575 -4.29664,1.32688 -6.45703,1.98438 -2.14864,0.65752 -4.31035,1.30343 -6.45899,1.96094 -2.16039,0.6575 -4.32011,1.31517 -6.46875,1.96093 -2.16039,0.65751 -4.30837,1.30345 -6.46875,1.94922 -2.16037,0.64577 -4.32206,1.29174 -6.4707,1.9375 -2.16038,0.63402 -4.32009,1.28007 -6.48047,1.90235 -2.14864,0.62229 -4.30839,1.25667 -6.45703,1.85547 -2.1369,0.61055 -4.28695,1.2079 -6.41211,1.77148 -2.12515,0.56357 -4.23817,1.12799 -6.33984,1.60938 -2.08994,0.48138 -4.1679,0.93882 -6.2461,1.26757 -2.07819,0.32875 -4.12104,0.59939 -6.1875,0.7168 -2.06644,0.11742 -4.12104,0.12907 -6.1875,0.0117 -2.07819,-0.11742 -4.15615,-0.37634 -6.24609,-0.70508 -1.28319,-0.20185 -2.57048,-0.45619 -3.86523,-0.73437 z"
         style="fill:#02beb0;fill-opacity:1;stroke-width:1.17412"
         id="path5" /><path
         d="m 288.73064,248.67784 c -2.14864,-0.65751 -4.29664,-1.32686 -6.45703,-1.98437 -2.14864,-0.66925 -4.29667,-1.32685 -6.44531,-1.9961 -2.14865,-0.6575 -4.31034,-1.32687 -6.45899,-1.98437 -2.14864,-0.65752 -4.30839,-1.31514 -6.45703,-1.97266 -2.16038,-0.6575 -4.30837,-1.31513 -6.46875,-1.97266 -2.14864,-0.64576 -4.31033,-1.30342 -6.4707,-1.96093 -2.14865,-0.64577 -4.30837,-1.30345 -6.46875,-1.94922 -2.14864,-0.64577 -4.30837,-1.29173 -6.46875,-1.9375 -2.16039,-0.63402 -4.32204,-1.28006 -6.48242,-1.90235 -2.16038,-0.62229 -4.33181,-1.25476 -6.49219,-1.83007 -2.17212,-0.58707 -4.34351,-1.17479 -6.51563,-1.69141 -2.17213,-0.50487 -4.34544,-1.00905 -6.51758,-1.38477 -2.17211,-0.37572 -4.35523,-0.70476 -6.51562,-0.86914 -2.16038,-0.16438 -4.33187,-0.24632 -6.45703,-0.1289 -2.11342,0.11741 -4.24023,0.37414 -6.2832,0.82031 -2.03123,0.44617 -4.0491,1.08051 -5.95118,1.87891 -1.90207,0.81014 -3.74676,1.80834 -5.4375,2.95898 -1.70247,1.15064 -3.30975,2.48937 -4.74218,3.95703 -1.43243,1.46765 -2.74784,3.10019 -3.875,4.83789 -1.12715,1.72596 -2.10198,3.61545 -2.90039,5.55274 -0.78665,1.94905 -1.40928,4.01556 -1.86719,6.09375 -0.46965,2.08994 -0.73997,4.26342 -0.88086,6.43554 -0.12915,2.17212 -0.094,4.37863 0.0703,6.57422 0.16437,2.19561 0.48159,4.39037 0.91602,6.5625 0.42268,2.17212 0.99875,4.33385 1.65625,6.44727 0.65751,2.11342 1.43193,4.20314 2.30078,6.23437 0.86884,2.04298 1.83197,4.05095 2.88867,6 1.04498,1.96077 2.19493,3.87343 3.41602,5.7168 1.22112,1.85511 2.53643,3.66467 3.91015,5.39063 1.38546,1.7377 2.84083,3.41488 4.36719,5.02343 1.52636,1.5968 3.13549,3.14761 4.79101,4.60352 1.66724,1.45591 3.40479,2.84128 5.18946,4.13281 1.79641,1.30329 3.65261,2.51345 5.55469,3.65234 1.90208,1.12716 3.86142,2.17197 5.85742,3.14649 1.99601,0.97451 4.05073,1.85386 6.11718,2.6875 2.06646,0.83362 4.17956,1.57475 6.29297,2.31445 2.12517,0.72796 4.27521,1.39715 6.41211,2.07813 2.1369,0.69274 4.29672,1.3385 6.42188,2.04297 2.12515,0.71621 4.26165,1.42037 6.33984,2.20703 2.07819,0.7984 4.14457,1.63104 6.16406,2.55859 2.00775,0.9393 3.98075,1.93734 5.88282,3.04102 1.91382,1.10366 3.76806,2.29052 5.55273,3.57031 1.78466,1.27979 3.5125,2.65346 5.14453,4.10937 1.64377,1.44417 3.2042,2.993 4.6836,4.61329 1.4794,1.62029 2.87643,3.3228 4.16796,5.08398 1.29153,1.77293 2.50183,3.61746 3.59375,5.51953 1.10367,1.90208 2.10182,3.87309 2.99415,5.89258 0.89233,2.01949 1.67838,4.11117 2.35937,6.23633 0.69274,2.12516 1.26859,4.30825 1.76172,6.52734 0.49313,2.20734 0.88022,4.47414 1.20898,6.76367 0.31701,2.28955 0.55237,4.62441 0.74024,6.97266 0.18786,2.34823 0.30448,4.72004 0.41015,7.10351 0.0939,2.38347 0.14053,4.79032 0.1875,7.19727 0.0469,2.40695 0.0585,4.82739 0.082,7.24609 0.0117,2.41868 0.0234,4.84889 0.0234,7.26758 0.0118,2.43043 0.0117,4.84887 0.0234,7.2793 0.0118,2.41868 0.0118,4.83718 0.0469,7.25586 0.0235,2.4187 0.0468,4.8255 0.11718,7.2207 0.0704,2.39521 0.1423,4.79041 0.29492,7.15039 0.1644,2.34825 0.33924,4.69685 0.65625,6.96289 0.31701,2.2778 0.68257,4.53106 1.22266,6.66797 0.5401,2.14864 1.19764,4.25018 2.01953,6.19922 0.83362,1.96078 1.81811,3.8405 2.96875,5.54297 1.15063,1.71423 2.48938,3.29811 3.95703,4.69531 1.46765,1.3972 3.1119,2.65425 4.86133,3.69922 1.7377,1.04497 3.65251,1.90301 5.60156,2.57227 1.94904,0.6575 4.02728,1.12644 6.10547,1.39648 2.0782,0.28179 4.23812,0.35174 6.36328,0.25781 2.1369,-0.0939 4.29672,-0.38783 6.42188,-0.82226 2.11342,-0.43443 4.22652,-1.0435 6.29297,-1.78321 2.05471,-0.72795 4.08606,-1.60942 6.05859,-2.60742 1.96077,-0.98626 3.88706,-2.10117 5.75391,-3.32226 1.85511,-1.20933 3.66269,-2.52465 5.40039,-3.9336 1.73771,-1.39721 3.41683,-2.89935 5.02539,-4.46093 1.5968,-1.57332 3.13592,-3.21742 4.58008,-4.93165 1.45592,-1.70247 2.82958,-3.48672 4.10937,-5.31835 1.29153,-1.83163 2.4881,-3.73458 3.60352,-5.67188 1.10368,-1.9373 2.11348,-3.92188 3.02929,-5.96484 0.92756,-2.03124 1.74861,-4.10922 2.47657,-6.23438 0.72795,-2.11342 1.36222,-4.27315 1.91406,-6.46875 0.56358,-2.19561 1.0227,-4.43905 1.41016,-6.69336 0.3992,-2.26605 0.70458,-4.56784 0.96289,-6.88086 0.27004,-2.32475 0.445,-4.67127 0.60937,-7.03125 0.16439,-2.34825 0.27128,-4.73176 0.37695,-7.11523 0.10568,-2.38346 0.17562,-4.79037 0.26954,-7.17383 0.008,-0.18643 0.0154,-0.37412 0.0234,-0.56055 -0.35252,-3.33755 -0.74364,-6.75615 -1.17773,-10.25781 0,0 3.17752,-80.86075 -7.3125,-100.0625 -9.38006,-17.16998 -32.08643,-28.44565 -50.74609,-35.14062 -0.81402,-0.1749 -1.63083,-0.3591 -2.45118,-0.54493 -2.11342,-0.49313 -4.2518,-1.06919 -6.37695,-1.65625 -2.13691,-0.58707 -4.28495,-1.21951 -6.43359,-1.84179 -2.14864,-0.63403 -4.29668,-1.27999 -6.44532,-1.9375 -2.16038,-0.64577 -4.31034,-1.31516 -6.45898,-1.97266 z"
         style="fill:#ffffff;fill-opacity:1;stroke-width:2.27906;stroke-linecap:round;stroke-linejoin:round"
         id="path4" /></g></g></svg>