<svg width="72" height="72" viewBox="0 0 72 72" fill="none" xmlns="http://www.w3.org/2000/svg" role="img" aria-label="Todos Protegidos">
  <defs>
    <linearGradient id="tpShield" x1="14" y1="6" x2="58" y2="66" gradientUnits="userSpaceOnUse">
      <stop stop-color="#00A859"/>
      <stop offset="1" stop-color="#00813F"/>
    </linearGradient>
    <linearGradient id="tpArc" x1="20" y1="22" x2="52" y2="46" gradientUnits="userSpaceOnUse">
      <stop stop-color="#7ED957"/>
      <stop offset="1" stop-color="#C9F0DA"/>
    </linearGradient>
  </defs>
  <!-- Escudo (proteção) -->
  <path d="M36 4 60 13.5v18.4C60 49 49.6 62.3 36 67 22.4 62.3 12 49 12 31.9V13.5L36 4Z" fill="url(#tpShield)"/>
  <path d="M36 4 60 13.5v18.4C60 49 49.6 62.3 36 67 22.4 62.3 12 49 12 31.9V13.5L36 4Z" stroke="#064D2A" stroke-opacity=".18" stroke-width="1.4"/>
  <!-- Arco de abraço / infinito -->
  <path d="M22 41c0-7 4.7-12 11-12 4 0 6.6 2 8.4 4.6 1.6-2 3.6-3.2 6.1-3.2 4.6 0 7.9 3.5 7.9 8.2" stroke="url(#tpArc)" stroke-width="4.2" stroke-linecap="round" fill="none" opacity=".9"/>
  <!-- Check de confiança -->
  <path d="M26.5 37.5 33 44l13-13.5" stroke="#FFFFFF" stroke-width="5" stroke-linecap="round" stroke-linejoin="round"/>
</svg>
