<svg width="260" height="64" viewBox="0 0 260 64" fill="none" xmlns="http://www.w3.org/2000/svg" role="img" aria-label="Todos Protegidos">
  <defs>
    <linearGradient id="tpShieldH" x1="10" y1="6" x2="50" y2="58" gradientUnits="userSpaceOnUse">
      <stop stop-color="#2536CF"/>
      <stop offset="1" stop-color="#141C93"/>
    </linearGradient>
    <linearGradient id="tpArcH" x1="16" y1="20" x2="44" y2="42" gradientUnits="userSpaceOnUse">
      <stop stop-color="#2FCFBA"/>
      <stop offset="1" stop-color="#14C2AD"/>
    </linearGradient>
  </defs>
  <!-- Símbolo -->
  <g transform="translate(2,2)">
    <path d="M30 2 50 9.9v15.3C50 39 41.3 50.1 30 54 18.7 50.1 10 39 10 25.2V9.9L30 2Z" fill="url(#tpShieldH)"/>
    <path d="M18.5 34c0-5.8 3.9-10 9.2-10 3.3 0 5.5 1.7 7 3.8 1.3-1.6 3-2.6 5-2.6 3.8 0 6.6 2.9 6.6 6.8" stroke="url(#tpArcH)" stroke-width="3.4" stroke-linecap="round" fill="none"/>
    <path d="M22 31l5.4 5.4L38 25.5" stroke="#FFFFFF" stroke-width="4.2" stroke-linecap="round" stroke-linejoin="round"/>
  </g>
  <!-- Wordmark -->
  <text x="68" y="30" font-family="Poppins, Segoe UI, sans-serif" font-size="22" font-weight="800" letter-spacing="-.4" fill="#141C93">TODOS</text>
  <text x="68" y="51" font-family="Poppins, Segoe UI, sans-serif" font-size="22" font-weight="700" letter-spacing="-.4" fill="#0A877A">Protegidos</text>
</svg>
