<svg width="270" height="64" viewBox="0 0 270 64" fill="none" xmlns="http://www.w3.org/2000/svg" role="img" aria-label="Todos Protegidos">
  <defs>
    <linearGradient id="tpMarkH" x1="8" y1="6" x2="52" y2="60" gradientUnits="userSpaceOnUse">
      <stop stop-color="#3FE0CE"/>
      <stop offset="1" stop-color="#0BA596"/>
    </linearGradient>
  </defs>
  <!-- Símbolo -->
  <g transform="translate(2,4)">
    <path d="M28 2c6.6 2.6 12.1 3.9 17 4.3 0 11.4.9 24.7-17 41C10.1 31 11 17.7 11 6.3 15.9 5.9 21.4 4.6 28 2Z" fill="url(#tpMarkH)"/>
    <path d="M19.4 22.5c0-2.8 2.3-5 5.1-5 2.1 0 3.9 1.2 4.7 3.1" stroke="#fff" stroke-width="3.2" stroke-linecap="round" fill="none" opacity=".55"/>
    <path d="M37.2 22.5c0-2.8-2.3-5-5.1-5-2.1 0-3.9 1.2-4.7 3.1" stroke="#fff" stroke-width="3.2" stroke-linecap="round" fill="none" opacity=".55"/>
    <path d="M19.8 28.4 26 34.6 38.4 21.4" stroke="#fff" stroke-width="4" stroke-linecap="round" stroke-linejoin="round"/>
  </g>
  <!-- Wordmark -->
  <text x="62" y="29" font-family="Poppins, Segoe UI, sans-serif" font-size="23" font-weight="800" letter-spacing="-.5" fill="#0A1252">TODOS</text>
  <text x="63" y="50" font-family="Poppins, Segoe UI, sans-serif" font-size="14.4" font-weight="700" letter-spacing="3.2" fill="#0BA596">PROTEGIDOS</text>
</svg>
